<svg width="40" height="32" viewBox="0 0 40 32" fill="none" xmlns="http://www.w3.org/2000/svg">
<path d="M17.7778 12.0889C17.7778 14.6963 17.1972 17.0864 16.036 19.2593C14.8749 21.3926 13.5135 23.2494 11.952 24.8296C10.3503 26.4494 8.58859 27.9111 6.66667 29.2148C4.74474 30.479 3.2032 31.4074 2.04204 32L0 28.5037C1.64164 27.5556 3.2032 26.5877 4.68468 25.6C6.20621 24.5728 7.36737 23.6049 8.16817 22.6963C9.24925 21.5111 10.1101 20.2864 10.7508 19.0222C11.3914 17.7185 11.7918 16.0198 11.952 13.9259H9.06907C6.54655 13.9259 4.58458 13.2938 3.18318 12.0296C1.78178 10.7654 1.08108 9.00741 1.08108 6.75556C1.08108 5.1358 1.72172 3.61481 3.003 2.19259C4.28428 0.730864 6.02603 0 8.22823 0C11.6316 0 14.0741 1.12593 15.5556 3.37778C17.037 5.59012 17.7778 8.49383 17.7778 12.0889ZM40 12.0889C40 14.6963 39.4194 17.0864 38.2583 19.2593C37.0971 21.3926 35.7357 23.2494 34.1742 24.8296C32.5726 26.4494 30.8108 27.9111 28.8889 29.2148C26.967 30.479 25.4254 31.4074 24.2643 32L22.2222 28.5037C23.8639 27.5556 25.4254 26.5877 26.9069 25.6C28.4284 24.5728 29.5896 23.6049 30.3904 22.6963C31.4715 21.5111 32.3323 20.2864 32.973 19.0222C33.6136 17.7185 34.014 16.0198 34.1742 13.9259H31.2913C28.7688 13.9259 26.8068 13.2938 25.4054 12.0296C24.004 10.7654 23.3033 9.00741 23.3033 6.75556C23.3033 5.1358 23.9439 3.61481 25.2252 2.19259C26.5065 0.730864 28.2482 0 30.4504 0C33.8539 0 36.2963 1.12593 37.7778 3.37778C39.2593 5.59012 40 8.49383 40 12.0889Z" fill="#B3BAC0"/>
</svg>
